<?xml version="1.0" standalone="no"?>
<!DOCTYPE svg PUBLIC "-//W3C//DTD SVG 20010904//EN"
 "http://www.w3.org/TR/2001/REC-SVG-20010904/DTD/svg10.dtd">
<svg version="1.0" xmlns="http://www.w3.org/2000/svg"
 width="512.000000pt" height="512.000000pt" viewBox="0 0 512.000000 512.000000"
 preserveAspectRatio="xMidYMid meet">

<g transform="translate(0.000000,512.000000) scale(0.100000,-0.100000)"
fill="#000000" stroke="none">
<path d="M2410 4900 c-210 -17 -427 -61 -640 -131 l-125 -41 -132 77 c-148 85
-183 95 -246 71 -54 -20 -58 -24 -328 -351 -122 -148 -294 -355 -382 -458 -87
-103 -165 -200 -173 -215 -23 -44 -16 -96 23 -194 l37 -92 -18 -45 c-95 -246
-134 -382 -168 -581 -30 -169 -32 -580 -5 -735 91 -515 317 -945 697 -1324
334 -332 712 -524 1200 -611 288 -51 643 -43 921 19 34 8 40 6 69 -24 57 -59
74 -59 434 -5 176 27 451 67 610 90 160 23 302 48 317 56 36 18 61 55 88 134
13 36 75 202 139 370 78 207 115 318 115 345 0 24 -27 111 -67 218 l-66 179
35 93 c49 131 90 283 117 432 19 110 22 162 23 378 0 268 -10 361 -62 575
-198 818 -835 1472 -1650 1695 -229 63 -533 93 -763 75z m-974 -486 c90 -185
164 -341 164 -348 0 -6 -37 -54 -82 -106 -123 -143 -488 -576 -623 -738 -65
-78 -122 -139 -126 -135 -25 27 -319 674 -319 703 0 10 69 100 152 198 205
241 660 762 665 762 2 0 78 -151 169 -336z m786 -198 l77 -47 99 -192 c55
-106 123 -237 153 -292 46 -87 50 -98 29 -84 -87 56 -829 499 -836 499 -8 0
-344 620 -344 633 0 3 168 -101 373 -232 204 -130 407 -258 449 -285z m643
153 c884 -148 1525 -898 1526 -1787 1 -90 -2 -166 -4 -169 -3 -2 -23 1 -46 8
l-41 12 6 96 c5 88 -8 296 -20 308 -2 3 -64 -6 -136 -18 l-131 -24 8 -65 c7
-62 8 -328 1 -335 -2 -2 -77 -13 -167 -25 -130 -17 -175 -20 -220 -12 -458 83
-914 162 -917 160 -2 -2 73 -62 166 -133 l170 -129 -27 -28 c-23 -24 -29 -26
-42 -15 -103 87 -273 217 -268 204 3 -9 56 -95 117 -191 l111 -174 -14 -48
-13 -47 -143 233 c-78 128 -145 239 -148 246 -9 23 -26 16 -20 -8 3 -13 36
-290 73 -616 l68 -592 33 6 c30 6 32 4 43 -36 6 -23 14 -48 17 -56 4 -10 -3
-14 -23 -14 -56 0 -57 -5 -42 -136 l13 -119 35 0 c19 0 49 3 66 7 29 7 31 5
42 -39 7 -25 11 -47 9 -49 -1 -2 -46 -10 -97 -18 -379 -59 -765 1 -1101 169
-568 285 -941 827 -1010 1470 -16 148 0 448 25 472 2 3 18 -3 35 -12 l31 -16
-7 -87 c-4 -48 -8 -105 -8 -127 l0 -40 45 -3 c25 -2 86 -1 136 3 l92 7 6 49
c4 27 9 49 11 49 2 0 20 -8 40 -17 30 -14 35 -22 35 -50 l0 -33 63 0 c51 -1
74 -7 127 -35 l65 -34 -122 -1 c-67 0 -124 -4 -127 -9 -13 -21 40 -323 64
-360 4 -8 187 53 546 180 296 104 543 194 547 199 5 4 -59 5 -142 2 -93 -3
-151 -1 -151 5 0 5 13 21 28 36 27 26 33 27 132 27 107 0 118 7 40 29 -25 7
-55 18 -67 25 -22 11 -22 11 -3 36 l18 24 78 -27 c42 -15 79 -26 81 -24 3 3
-72 63 -116 94 -3 2 6 14 19 28 l23 24 64 -50 c36 -28 67 -49 69 -47 2 3 -19
36 -46 75 l-49 70 23 22 24 23 53 -79 c61 -92 58 -87 63 -82 3 2 -8 58 -24
124 l-29 120 22 23 c11 12 24 19 28 15 3 -5 19 -61 34 -125 15 -65 31 -118 35
-118 4 0 13 85 20 189 l13 188 33 39 c40 47 39 65 15 -221 -16 -194 -17 -226
-7 -214 15 17 466 1074 463 1084 -7 16 -170 69 -280 91 -73 14 -90 15 -97 4
-5 -7 -12 -70 -16 -139 l-7 -126 -28 60 c-16 36 -25 72 -23 90 2 17 5 54 8 83
l5 52 -48 0 c-42 0 -49 3 -59 25 -7 14 -12 28 -12 30 0 3 26 5 59 5 58 0 59 0
65 33 3 17 9 86 12 151 l7 119 -179 -6 c-174 -5 -180 -5 -217 18 l-38 23 98
11 c202 23 349 21 528 -10z m-892 -543 c144 -84 354 -206 467 -271 113 -64
208 -120 212 -123 11 -12 -814 -937 -839 -940 -13 -2 -144 63 -340 169 -175
94 -384 207 -465 251 -82 44 -150 84 -153 89 -3 4 81 107 187 227 106 120 297
339 423 485 127 146 234 266 238 267 4 0 126 -69 270 -154z m2363 -1524 c6 -4
16 -17 23 -29 17 -33 352 -965 348 -969 -2 -2 -131 -19 -288 -39 -156 -19
-426 -53 -599 -75 -173 -22 -328 -41 -344 -43 l-29 -2 -168 510 c-92 280 -166
512 -163 514 6 7 1101 139 1159 140 28 0 55 -3 61 -7z m-1171 -622 c59 -190
126 -403 149 -474 l42 -128 -84 -345 c-46 -189 -86 -343 -87 -341 -7 7 -285
990 -285 1008 0 23 151 632 156 628 1 -2 51 -158 109 -348z m1523 -567 c-102
-335 -182 -590 -190 -606 -20 -38 -56 -46 -428 -96 -592 -78 -800 -104 -804
-100 -6 6 193 712 202 720 4 4 131 24 282 44 151 21 419 59 595 85 176 26 332
48 346 49 l27 1 -30 -97z"/>
<path d="M1149 4563 c-38 -32 -79 -115 -79 -160 0 -36 29 -73 56 -73 59 0 134
103 134 183 0 78 -50 101 -111 50z"/>
<path d="M1359 4147 c-57 -38 -92 -99 -97 -166 -4 -51 -1 -62 18 -81 58 -58
173 50 188 175 4 37 1 47 -21 69 -32 32 -45 32 -88 3z"/>
<path d="M990 4064 c-58 -36 -111 -149 -97 -206 9 -33 33 -58 56 -58 55 0 136
100 147 182 12 84 -39 123 -106 82z"/>
<path d="M635 3992 c-41 -25 -85 -109 -85 -161 0 -102 95 -100 155 3 68 115
24 215 -70 158z"/>
<path d="M830 3504 c-44 -37 -70 -94 -70 -152 0 -55 12 -72 51 -72 81 0 170
174 120 233 -20 25 -65 21 -101 -9z"/>
<path d="M1900 4269 c0 -51 203 -210 232 -181 24 24 -81 141 -164 183 -48 25
-68 24 -68 -2z"/>
<path d="M2726 4213 c-4 -60 -10 -124 -13 -144 l-5 -37 73 -12 c96 -15 216
-46 286 -71 30 -12 58 -17 62 -13 15 18 111 246 106 254 -9 14 -248 88 -352
109 -161 33 -149 40 -157 -86z"/>
<path d="M3250 4034 c-30 -70 -56 -129 -57 -133 -2 -3 34 -25 80 -49 45 -24
120 -72 167 -107 l85 -64 25 28 c14 16 56 63 95 106 l70 77 -35 30 c-81 68
-345 238 -371 238 -3 0 -29 -57 -59 -126z"/>
<path d="M3677 3737 l-97 -106 62 -66 c54 -57 161 -196 188 -244 6 -12 29 -3
121 48 63 35 117 67 121 70 16 15 -127 217 -239 340 l-58 63 -98 -105z"/>
<path d="M2946 3342 c-115 -262 -221 -501 -234 -530 -14 -29 -23 -54 -21 -57
2 -2 179 193 393 432 214 239 384 438 379 442 -5 3 -38 28 -73 56 -65 50 -206
135 -225 135 -5 0 -104 -215 -219 -478z"/>
<path d="M3133 3138 c-215 -238 -390 -434 -388 -436 4 -4 991 543 1008 558 11
10 -100 172 -170 248 l-58 63 -392 -433z"/>
<path d="M3989 3313 l-116 -65 44 -103 c24 -57 54 -142 66 -189 15 -60 26 -86
37 -86 8 0 68 10 133 22 108 20 117 23 117 44 0 22 -40 171 -62 229 -27 75
-91 215 -97 214 -3 0 -58 -30 -122 -66z"/>
<path d="M3290 2925 c-272 -151 -499 -276 -505 -278 -5 -3 -8 -7 -5 -9 3 -3
68 7 145 22 77 15 327 62 555 105 228 43 419 81 424 86 5 4 2 37 -8 76 -19 74
-95 273 -105 273 -3 0 -229 -124 -501 -275z"/>
<path d="M3382 2679 c-294 -54 -536 -100 -539 -103 -8 -8 2 -9 561 -96 285
-45 521 -78 524 -75 11 11 8 353 -3 363 -6 5 -227 -31 -543 -89z"/>
<path d="M818 2515 c-23 -23 66 -485 93 -485 7 0 240 80 247 85 1 1 -7 37 -18
80 -16 64 -50 276 -50 316 0 9 -262 13 -272 4z"/>
<path d="M1825 2285 c-296 -106 -541 -197 -542 -202 -7 -21 103 -222 179 -328
4 -6 19 1 35 16 15 15 215 174 443 354 433 342 450 356 435 354 -6 0 -253 -88
-550 -194z"/>
<path d="M1965 2063 c-248 -195 -452 -357 -454 -359 -12 -11 242 -246 276
-256 11 -3 638 960 630 968 -1 2 -205 -157 -452 -353z"/>
<path d="M2160 1893 c-168 -262 -306 -480 -308 -484 -4 -10 189 -104 267 -129
35 -12 67 -18 71 -13 4 4 69 249 145 543 76 294 140 541 142 548 22 57 -54
-55 -317 -465z"/>
<path d="M2477 2083 c-37 -153 -98 -405 -136 -561 -45 -188 -65 -285 -57 -287
68 -22 376 -35 376 -16 0 6 -22 253 -50 551 -27 298 -50 552 -50 566 0 67 -22
-1 -83 -253z"/>
<path d="M1042 2007 c-100 -37 -111 -43 -106 -62 25 -84 209 -400 239 -412 12
-4 205 141 205 154 0 3 -21 37 -46 75 -48 71 -144 257 -144 277 0 18 -28 12
-148 -32z"/>
<path d="M1313 1548 l-102 -81 50 -56 c92 -100 322 -294 333 -280 19 28 127
201 131 211 4 9 -15 29 -52 54 -32 21 -102 83 -156 137 -54 53 -99 97 -100 97
-1 0 -48 -37 -104 -82z"/>
<path d="M1720 1208 c-36 -56 -66 -105 -68 -109 -8 -19 429 -211 445 -195 7 7
63 230 60 239 -1 5 -49 26 -106 48 -57 21 -137 57 -177 79 -40 22 -77 40 -81
40 -4 0 -37 -46 -73 -102z"/>
<path d="M2247 1123 c-11 -21 -59 -235 -53 -240 16 -16 164 -34 325 -40 l174
-6 -7 103 c-4 57 -10 116 -13 132 l-5 28 -122 0 c-109 0 -233 12 -278 26 -9 2
-18 1 -21 -3z"/>
<path d="M1678 3790 c-139 -76 -121 -270 25 -270 140 0 227 171 132 260 -34
32 -108 37 -157 10z"/>
<path d="M1968 3605 c-35 -24 -78 -94 -78 -128 0 -36 29 -86 59 -101 94 -49
220 36 221 148 0 30 -7 45 -34 72 -29 29 -41 34 -83 34 -35 0 -58 -7 -85 -25z"/>
<path d="M2270 3448 c-156 -83 -89 -306 73 -244 52 19 80 47 102 99 47 112
-64 204 -175 145z"/>
<path d="M1155 3201 c-118 -72 -122 -227 -7 -262 112 -33 236 91 203 203 -7
21 -24 46 -40 57 -38 27 -114 28 -156 2z"/>
<path d="M1495 3043 c-30 -8 -83 -51 -99 -81 -29 -56 -24 -116 13 -153 52 -51
147 -37 204 31 86 102 9 234 -118 203z"/>
<path d="M1770 2873 c-35 -13 -72 -47 -90 -83 -62 -122 46 -223 169 -160 96
48 117 179 39 234 -22 16 -88 20 -118 9z"/>
<path d="M4113 2211 c-50 -23 -75 -58 -75 -106 0 -77 59 -120 155 -113 54 4
63 8 93 41 57 62 39 142 -39 178 -53 23 -81 23 -134 0z"/>
<path d="M3370 2129 c-139 -55 -99 -229 53 -229 85 0 147 51 147 120 0 86
-108 145 -200 109z"/>
<path d="M4203 1904 c-109 -55 -76 -200 51 -221 52 -8 123 21 147 61 29 48 25
90 -15 133 -30 33 -39 37 -92 40 -41 3 -69 -1 -91 -13z"/>
<path d="M3477 1826 c-47 -17 -64 -32 -84 -69 -29 -56 8 -129 80 -156 89 -34
197 28 197 113 0 85 -102 145 -193 112z"/>
<path d="M4355 1611 c-75 -18 -115 -63 -115 -126 0 -74 59 -125 145 -125 91 0
155 55 155 131 0 78 -97 141 -185 120z"/>
<path d="M3563 1509 c-102 -51 -104 -170 -2 -221 137 -70 295 76 199 185 -29
33 -84 57 -131 57 -13 0 -43 -9 -66 -21z"/>
<path d="M3056 1334 c-11 -30 -6 -141 10 -195 26 -90 56 -103 68 -29 17 105
-50 297 -78 224z"/>
<path d="M4390 1078 c-84 -44 -104 -111 -40 -138 53 -22 157 12 199 66 26 33
26 49 1 74 -28 28 -102 27 -160 -2z"/>
<path d="M3683 989 c-118 -21 -195 -118 -131 -163 30 -22 113 -20 163 3 74 33
118 110 81 140 -24 20 -69 28 -113 20z"/>
<path d="M3968 805 c-26 -9 -63 -31 -83 -49 -30 -29 -36 -41 -33 -68 4 -44 36
-60 106 -54 87 8 172 72 172 129 0 43 -86 66 -162 42z"/>
<path d="M4285 621 c-70 -18 -135 -71 -135 -111 0 -46 67 -68 143 -46 59 17
117 70 117 106 0 21 -25 50 -43 50 -7 0 -21 2 -32 4 -11 3 -33 1 -50 -3z"/>
<path d="M3503 534 c-46 -17 -103 -74 -103 -103 0 -57 103 -73 181 -30 85 48
103 115 38 138 -41 14 -64 13 -116 -5z"/>
</g>
</svg>
